<svg id="e12732d2-a5d8-4802-8cce-7bb947dee9fc" data-name="Main" xmlns="http://www.w3.org/2000/svg" viewBox="0 0 330.81 373.92"><defs><style>.ea73fbdf-f048-4e97-bc07-bb0b2969bee0,.f07aef9f-38fd-428f-bc73-47ca525dc184,.f4a4d906-3c6f-4179-bb65-49dff726c11f{fill:#ea6954;}.afa3e173-b557-4a70-97cf-07566c42bb6b,.ea73fbdf-f048-4e97-bc07-bb0b2969bee0,.eb772659-6642-46b7-9d47-de390253f8eb,.f07aef9f-38fd-428f-bc73-47ca525dc184,.f4a4d906-3c6f-4179-bb65-49dff726c11f{stroke:#ea6954;stroke-miterlimit:10;}.ea73fbdf-f048-4e97-bc07-bb0b2969bee0{stroke-width:4px;}.afa3e173-b557-4a70-97cf-07566c42bb6b,.eb772659-6642-46b7-9d47-de390253f8eb{fill:none;}.eb772659-6642-46b7-9d47-de390253f8eb{stroke-width:8px;}.afa3e173-b557-4a70-97cf-07566c42bb6b{stroke-width:5px;}.f4a4d906-3c6f-4179-bb65-49dff726c11f{stroke-width:6px;}.f07aef9f-38fd-428f-bc73-47ca525dc184{stroke-width:10px;}</style></defs><title>concordia_logo_clean_transp</title><g id="b83a01e3-c11e-43ae-b1d1-41016566a065" data-name="Thin lines"><line class="ea73fbdf-f048-4e97-bc07-bb0b2969bee0" x1="6.54" y1="159.57" x2="214.18" y2="40.02"/><line class="ea73fbdf-f048-4e97-bc07-bb0b2969bee0" x1="268.01" y1="67.02" x2="8.19" y2="217.01"/><path class="ea73fbdf-f048-4e97-bc07-bb0b2969bee0" d="M147.33,310.48" transform="translate(-84.98 -63.19)"/><path class="ea73fbdf-f048-4e97-bc07-bb0b2969bee0" d="M93.17,340.61" transform="translate(-84.98 -63.19)"/><path class="ea73fbdf-f048-4e97-bc07-bb0b2969bee0" d="M194.38,339.38" transform="translate(-84.98 -63.19)"/><path class="ea73fbdf-f048-4e97-bc07-bb0b2969bee0" d="M143.26,369.07" transform="translate(-84.98 -63.19)"/><line class="ea73fbdf-f048-4e97-bc07-bb0b2969bee0" x1="164.08" y1="307.55" x2="218.73" y2="276.32"/><line class="ea73fbdf-f048-4e97-bc07-bb0b2969bee0" x1="164.08" y1="307.55" x2="164.08" y2="307.55"/><path class="ea73fbdf-f048-4e97-bc07-bb0b2969bee0" d="M250.4,70.47" transform="translate(-84.98 -63.19)"/><path class="ea73fbdf-f048-4e97-bc07-bb0b2969bee0" d="M250.4,131.07" transform="translate(-84.98 -63.19)"/><line class="ea73fbdf-f048-4e97-bc07-bb0b2969bee0" x1="214.18" y1="40.02" x2="213.85" y2="98.18"/><line class="ea73fbdf-f048-4e97-bc07-bb0b2969bee0" x1="268.07" y1="72.66" x2="268.07" y2="128.48"/><line class="ea73fbdf-f048-4e97-bc07-bb0b2969bee0" x1="61.62" y1="248.08" x2="60.76" y2="251.27"/><line class="ea73fbdf-f048-4e97-bc07-bb0b2969bee0" x1="109.4" y1="276.19" x2="109.4" y2="276.19"/><line class="ea73fbdf-f048-4e97-bc07-bb0b2969bee0" x1="60.76" y1="185.89" x2="60.76" y2="246.48"/><line class="ea73fbdf-f048-4e97-bc07-bb0b2969bee0" x1="164.08" y1="307.55" x2="8.13" y2="216.98"/><line class="ea73fbdf-f048-4e97-bc07-bb0b2969bee0" x1="164.39" y1="8.19" x2="164.08" y2="307.55"/></g><g id="fed0cce0-4af9-4b2d-b863-61c942ac6516" data-name="Thick lines"><polyline class="eb772659-6642-46b7-9d47-de390253f8eb" points="8.19 217.19 8.93 99.77 164.08 8.19"/><polyline class="eb772659-6642-46b7-9d47-de390253f8eb" points="322.52 98.08 268.38 130.07 164.08 69.47 61.56 128.48 61.56 186.08"/><polyline class="eb772659-6642-46b7-9d47-de390253f8eb" points="218.73 276.32 322.29 215.69 321.5 276.78 164.08 369.28 8.19 277.19"/></g><g id="fc525e57-c3b6-4537-a6f4-917e8af7caa9" data-name="Medium lines"><polyline class="afa3e173-b557-4a70-97cf-07566c42bb6b" points="164.08 8.19 164.08 68.78 214.18 40.02 214.18 98.18 268.27 67.88 268.28 130.28"/><polyline class="afa3e173-b557-4a70-97cf-07566c42bb6b" points="8.19 277.19 61.62 248.08 61.62 304.28 109.4 276.19 109.4 336.28 164.06 307.55 164.06 369.28"/></g><g id="b1c4230e-0310-46b2-a1fb-d6a53c5bc9b8" data-name="Small nodes"><circle class="f4a4d906-3c6f-4179-bb65-49dff726c11f" cx="268.28" cy="67.88" r="3.19"/><circle class="f4a4d906-3c6f-4179-bb65-49dff726c11f" cx="109.4" cy="276.19" r="3.19"/></g><g id="ef16cbf3-3f8b-4797-841e-58de76523415" data-name="Big nodes"><circle class="f07aef9f-38fd-428f-bc73-47ca525dc184" cx="61.56" cy="186.08" r="3.19"/><circle class="f07aef9f-38fd-428f-bc73-47ca525dc184" cx="164.08" cy="8.19" r="3.19"/><circle class="f07aef9f-38fd-428f-bc73-47ca525dc184" cx="164.08" cy="307.55" r="3.19"/><circle class="f07aef9f-38fd-428f-bc73-47ca525dc184" cx="8.19" cy="217.01" r="3.19"/><circle class="f07aef9f-38fd-428f-bc73-47ca525dc184" cx="61.62" cy="248.08" r="3.19"/><circle class="f07aef9f-38fd-428f-bc73-47ca525dc184" cx="322.62" cy="98.08" r="3.19"/><circle class="f07aef9f-38fd-428f-bc73-47ca525dc184" cx="214.18" cy="40.02" r="3.19"/><circle class="f07aef9f-38fd-428f-bc73-47ca525dc184" cx="218.73" cy="276.32" r="3.19"/><circle class="f07aef9f-38fd-428f-bc73-47ca525dc184" cx="8.19" cy="277.19" r="3.19"/></g></svg>