<svg xmlns="http://www.w3.org/2000/svg" viewBox="0 0 222.72 222.7"><defs><style>.cls-1{isolation:isolate;}.cls-2{fill:#f490b2;}.cls-3{fill:#f16f98;}.cls-4{fill:#ef5080;}.cls-5{mix-blend-mode:multiply;}.cls-6{fill:#8a7878;}.cls-7{fill:#50434e;}.cls-8{fill:#2b1f29;}</style></defs><title>orbit_db_logo_color</title><g class="cls-1"><g id="Layer_1" data-name="Layer 1"><path class="cls-2" d="M105.9,20.27c-14.15-2.36-29.62,0-44.31,5.32A131,131,0,0,1,105.9,20.27Z"/><path class="cls-2" d="M149.5,21.59q-6,2-11.67,4.25a100.35,100.35,0,0,1,16.63,6.85l.67.35c2.89-2.16,4.69-4.13,4.07-6.16A37.31,37.31,0,0,0,154,20.16c-6.34-6.52-14.34-9.69-23-11.53A188.19,188.19,0,0,0,111.82,6l-1.23-.13c-2-.21-4-.43-5.93-.68a91.6,91.6,0,0,1-15.07-3A111.47,111.47,0,0,0,65.48,9.9Q63.1,11,60.76,12.18a109.65,109.65,0,0,0-15.92,9.94c26.09-5.22,52.27-10.35,80.89-13C135.39,11.58,144,15,149.5,21.59Z"/><path class="cls-2" d="M35.52,45.93C51.24,44.62,62.12,33.63,77,30.22c-20.57-2.4-42.88,5.92-56.76,21.31-.37.45-.75.91-1.11,1.37C22.82,49.43,28.1,47,35.52,45.93Z"/><path class="cls-2" d="M126.17,1.84c4.41.89,9,1.3,13.5,1.78a111.54,111.54,0,0,0-11.1-2.3Q125.78.89,123,.6c-.81-.09-1.63-.16-2.45-.23.49.16,1,.31,1.46.45C123.37,1.22,124.76,1.55,126.17,1.84Z"/><path class="cls-2" d="M46.87,189.1c-.77-.42-1.53-.86-2.3-1.3-10.19-5.84-20-13.55-25.2-23.51a32,32,0,0,1-3.69-14.88,13.72,13.72,0,0,1,1.58-8.21c2.42-5.1,6.44-9.79,5.51-14.48-4-20.88-15.64-49.45-8.52-66.59A62.28,62.28,0,0,0,8.88,72c-.09.29-.2.57-.29.86a28.9,28.9,0,0,0-1.4,11c.35,6,2.27,11.84,4,17.73-.19-1.37-.37-2.74-.54-4.1,2,6.41,4,12.52,3.67,18.12a7.74,7.74,0,0,1,0,6.29c-.14.35-.29.69-.46,1a8.16,8.16,0,0,1-1,1.88h0c-1.58,2.52-3.75,5-5.64,7.56,1-2.87,3.87-5.1,5.64-7.56h0a19.68,19.68,0,0,0,1-1.88,5.08,5.08,0,0,0,.37-1.64c0-.08,0-.16,0-.25a33.36,33.36,0,0,0,0-4.79c0,.18,0,.36,0,.54l-.39,2.2q-.53-3.28-1-6.56C7.66,101.28,6,90.8,6.87,81.29a49.91,49.91,0,0,1,2-10,51.51,51.51,0,0,1,6.44-13.38,20.15,20.15,0,0,1,3.35-4.48q.78-.95,1.59-1.86A70.38,70.38,0,0,1,27,44.48a112,112,0,0,0-11.14,9.7A109.53,109.53,0,0,0,9,67.75c-.5,1.17-1,2.36-1.44,3.55a111.55,111.55,0,0,0,3.05,87.15,110.32,110.32,0,0,0,8.69,15.27A111.74,111.74,0,0,0,32.75,190c.73.74,1.48,1.46,2.24,2.17a73.4,73.4,0,0,0,10.13,1.17l.33,0C46.87,193.34,48.29,190.51,46.87,189.1Z"/><path class="cls-2" d="M199.45,166.89c-3.74.19-7.64.8-11.52,1.1a43.56,43.56,0,0,1-16.51-1.49,43.86,43.86,0,0,1-6.57-3.14,51,51,0,0,1-7.67-5.44,46.27,46.27,0,0,0,15.54,4.39,25,25,0,0,0,19.47-6.68,41.77,41.77,0,0,0,6.88-8.32q1-2.26,2-4.54c8.84-12,12.61-27.41,21.39-38.64a112.08,112.08,0,0,0-1.7-13.51A15.57,15.57,0,0,1,219.31,92l-.18.15c-.41.35-.86.69-1.32,1C213,96.7,206,100.1,202.31,104.78c-3.93,3.42-8.5,5.41-13.7,3.51a42.12,42.12,0,0,1-8.22-5,48,48,0,0,1-9.3-9.63,67.42,67.42,0,0,1-7.74-13.86,81.74,81.74,0,0,1-3.29-9.27c-4.54-14.55,6.41-26.77,19.19-29.69a25.31,25.31,0,0,1,7.94-.58c-2.44,1.22-7,1.4-7.66,4.83a5.54,5.54,0,0,0,0,1.87h.21c1,.11,2.52-.39,4.86-1.3l2.29-.9a27.88,27.88,0,0,1,11.76-.37c.7.12,1.4.27,2.09.43-1-1.35-2-2.68-3.12-4-2.33-2.84-4.82-5.6-7.47-8.25q-1.66-1.67-3.37-3.22a111.59,111.59,0,0,0-13.9-10.91A10.68,10.68,0,0,1,173,28.92c-4.25,9.92-17,14.17-19.84,25.51-1.41,2.84,0,7.09.76,9.62,1.58,5.79,3.24,11.2,4.25,16.74a59.18,59.18,0,0,1,.67,17.58l-.15.31c-1.37,2.73-2.79,5.42-5.53,6.79-11.34,4.24-22.68,0-28.34-9.93-.85-1.79-1.66-3.63-2.46-5.51C116,75,110.53,57.4,102.28,45.36c-4.61-6.72-10.09-11.73-17.15-13.61-.89-.24-1.8-.45-2.7-.64a9.34,9.34,0,0,1,1.63,3.74c5.44,4.69,7.79,10.82,9.59,17.33,1.36,5,2.41,10.11,4.24,15a197.61,197.61,0,0,0,9.55,19.45c10.26,18.18,24,34.45,43,43.36a73.88,73.88,0,0,0,14.05,5,80.2,80.2,0,0,0,11.23,2.55c1.45.22,2.92.41,4.41.56q0-3.21,0-6.42T180,125.3c.47.69,1,1.46,1.48,2.28,1.82,3,3.55,6.59,3.17,9.72a6,6,0,0,1-1.74,3.6,22.31,22.31,0,0,1-8.78,7.63,21,21,0,0,1-10.51,1.54,16.09,16.09,0,0,1-4.53-1.5c-2.92-1.35-5.46-2.95-7.37-2A146.05,146.05,0,0,1,119,148.11c-21.14-1.52-39.73-8.2-54.86-19.72a93.24,93.24,0,0,1-12.76-11.77C39.28,103.2,30.45,85.68,25.6,64.35,21.35,70,18.51,77.11,19.93,82.78c1.42,24.1,5.67,45.36,9.92,66.62,2.31,9.57,7.23,15.37,13.87,18.68a35.75,35.75,0,0,0,10.84,3.22c11.53,1.68,25.65-.44,39.79-2.69,8.69-1.39,17.39-2.83,25.49-3.47a86.16,86.16,0,0,1,13.49-.14c7.09,1.41,14.18,5.66,20.77,10.49a40.84,40.84,0,0,1,6.17,7.93c-3.55,0-7.09-.08-10.64-.14-15.06,1.11-29.82,5.54-44.54,9.87-11.27,3.31-22.52,6.55-33.86,8.18a97.5,97.5,0,0,1-18.31,1q-3.12-.15-6.26-.54,3,2.19,6.21,4.15l1.63,1c2,1.2,4,2.32,6.11,3.38s3.88,1.92,5.85,2.79a111.52,111.52,0,0,0,101.64-6c-8.25,2.26-16,4.61-23.94,6.06a87.43,87.43,0,0,1-26.11,1c-4.22-2.1-8.42-4.21-10.53-8.41,0-.14-.1-.27-.14-.41,17.65-2.83,35.26-7.43,53.16-12.18,9.17-1.43,18.49-2.74,28.07-4a28.9,28.9,0,0,0,2.9-.52c1.22-1.27,2.4-2.56,3.56-3.86a111.29,111.29,0,0,0,11.12-15c.53-.86,1-1.72,1.55-2.59C206.12,166.44,202.07,166.51,199.45,166.89Z"/><path class="cls-2" d="M209.81,68.92c2.16,1.7,4.4,3.45,6.39,5.29l.31.3c-.32-.92-.65-1.82-1-2.73-.78-2.07-1.64-4.12-2.55-6.15q-1.05-2.35-2.22-4.65A113.05,113.05,0,0,0,204,49.48a6,6,0,0,0-2.62,2.25A10.21,10.21,0,0,0,200,55.85C199.28,60.54,204.31,64.59,209.81,68.92Z"/><path class="cls-3" d="M181.51,127.58c-.5-.82-1-1.59-1.48-2.28q.06,3.18.07,6.35t0,6.42c-1.49-.15-3-.34-4.41-.56A80.2,80.2,0,0,1,164.47,135a73.88,73.88,0,0,1-14.05-5c-19-8.91-32.72-25.18-43-43.36a197.61,197.61,0,0,1-9.55-19.45c-1.83-4.9-2.88-10.06-4.24-15-1.8-6.51-4.15-12.64-9.59-17.33a9.34,9.34,0,0,0-1.63-3.74,7.71,7.71,0,0,0-1.64-1.58,37.3,37.3,0,0,0-3.76.69c-14.91,3.41-25.79,14.4-41.51,15.71-7.42,1.06-12.7,3.5-16.36,7-.17.16-.32.32-.48.49a20.15,20.15,0,0,0-3.35,4.48,21.35,21.35,0,0,0-1.08,2.26c-7.12,17.14,4.54,45.71,8.52,66.59.93,4.69-3.09,9.38-5.51,14.48a13.72,13.72,0,0,0-1.58,8.21,32,32,0,0,0,3.69,14.88c5.15,10,15,17.67,25.2,23.51.77.44,1.53.88,2.3,1.3,1.42,1.41,0,4.24-1.42,4.24l-.33,0A73.4,73.4,0,0,1,35,192.15q2.44,2.32,5,4.45,3,2.55,6.18,4.84c.17.11.33.23.49.35q3.14.39,6.26.54a97.5,97.5,0,0,0,18.31-1c11.34-1.63,22.59-4.87,33.86-8.18,14.72-4.33,29.48-8.76,44.54-9.87,3.55.06,7.09.14,10.64.14a40.84,40.84,0,0,0-6.17-7.93c-6.59-4.83-13.68-9.08-20.77-10.49a86.16,86.16,0,0,0-13.49.14c-8.1.64-16.8,2.08-25.49,3.47-14.14,2.25-28.26,4.37-39.79,2.69a35.75,35.75,0,0,1-10.84-3.22c-6.64-3.31-11.56-9.11-13.87-18.68-4.25-21.26-8.5-42.52-9.92-66.62C18.51,77.11,21.35,70,25.6,64.35c4.85,21.33,13.68,38.85,25.74,52.27A93.24,93.24,0,0,0,64.1,128.39c15.13,11.52,33.72,18.2,54.86,19.72a146.05,146.05,0,0,0,32.79-1.54c1.91-.95,4.45.65,7.37,2a16.09,16.09,0,0,0,4.53,1.5,21,21,0,0,0,10.51-1.54,22.31,22.31,0,0,0,8.78-7.63,6,6,0,0,0,1.74-3.6C185.06,134.17,183.33,130.54,181.51,127.58Zm-117.44-40c-2.64-8.12,2.46-8-12-16.43-18.35-10.76,5.7-5.7,5.7-5.7s10.49,1,17.45,5.72A13,13,0,0,1,81,78.79v0c1,4,2.73,9.41,4.63,14.8,3.53,10,7.49,19.86,7.49,19.86S85,113.87,76,105.55c-.9-.84-1.81-1.78-2.73-2.8a50.92,50.92,0,0,1-4.76-6.3A38.88,38.88,0,0,1,64.07,87.62Z"/><path class="cls-4" d="M222.5,104.13c-8.78,11.23-12.55,26.69-21.39,38.64q-1,2.28-2,4.54a41.77,41.77,0,0,1-6.88,8.32,25,25,0,0,1-19.47,6.68,46.27,46.27,0,0,1-15.54-4.39,51,51,0,0,0,7.67,5.44,43.86,43.86,0,0,0,6.57,3.14A43.56,43.56,0,0,0,187.93,168c3.88-.3,7.78-.91,11.52-1.1,2.62-.38,6.67-.45,8.29.22A111.39,111.39,0,0,0,222.5,104.13Z"/><path class="cls-4" d="M160.54,193.14c-17.9,4.75-35.51,9.35-53.16,12.18,0,.14.09.27.14.41,2.11,4.2,6.31,6.31,10.53,8.41a87.43,87.43,0,0,0,26.11-1c7.93-1.45,15.69-3.8,23.94-6.06a111.78,111.78,0,0,0,22-17.12l1.37-1.41a28.9,28.9,0,0,1-2.9.52C179,190.4,169.71,191.71,160.54,193.14Z"/><path class="cls-4" d="M12.81,124.83h0a8.16,8.16,0,0,0,1-1.88,19.68,19.68,0,0,1-1,1.88Z"/><path class="cls-4" d="M12.81,124.83c-1.77,2.46-4.67,4.69-5.64,7.56C9.06,129.87,11.23,127.35,12.81,124.83Z"/><path class="cls-4" d="M19.16,52.9c.36-.46.74-.92,1.11-1.37q-.81.91-1.59,1.86C18.84,53.22,19,53.06,19.16,52.9Z"/><path class="cls-4" d="M124.83,95.54c5.66,9.92,17,14.17,28.34,9.93,2.74-1.37,4.16-4.06,5.53-6.79l.15-.31a59.18,59.18,0,0,0-.67-17.58c-1-5.54-2.67-11-4.25-16.74-.75-2.53-2.17-6.78-.76-9.62C156,43.09,168.76,38.84,173,28.92a10.68,10.68,0,0,0-.14-10.46,110.76,110.76,0,0,0-10.48-6.15c-1.61-.83-3.24-1.61-4.88-2.36a111.1,111.1,0,0,0-17.84-6.33c-4.55-.48-9.09-.89-13.5-1.78-1.41-.29-2.8-.62-4.18-1-.49-.14-1-.29-1.46-.45A111.84,111.84,0,0,0,93.61,1.43q-2,.33-4,.72a91.6,91.6,0,0,0,15.07,3c2,.25,3.94.47,5.93.68l1.23.13A188.19,188.19,0,0,1,131,8.63c8.66,1.84,16.66,5,23,11.53a37.31,37.31,0,0,1,5.17,6.72c.62,2-1.18,4-4.07,6.16l-.67-.35a100.35,100.35,0,0,0-16.63-6.85q5.67-2.28,11.67-4.25c-5.48-6.57-14.11-10-23.77-12.5-28.62,2.68-54.8,7.81-80.89,13A111.8,111.8,0,0,0,15.9,54.18,112,112,0,0,1,27,44.48a70.38,70.38,0,0,0-6.77,7.05C34.15,36.14,56.46,27.82,77,30.22a37.3,37.3,0,0,1,3.76-.69,7.71,7.71,0,0,1,1.64,1.58c.9.19,1.81.4,2.7.64,7.06,1.88,12.54,6.89,17.15,13.61C110.53,57.4,116,75,122.37,90,123.17,91.91,124,93.75,124.83,95.54ZM61.59,25.59c14.69-5.31,30.16-7.68,44.31-5.32A131,131,0,0,0,61.59,25.59Z"/><path class="cls-4" d="M8.88,72a62.28,62.28,0,0,1,5.37-11.87,21.35,21.35,0,0,1,1.08-2.26A51.51,51.51,0,0,0,8.89,71.25a49.91,49.91,0,0,0-2,10c-.91,9.51.79,20,6,31.15q.51,3.27,1,6.56l.39-2.2c0-.18,0-.36,0-.54a33.36,33.36,0,0,1,0,4.79c0,.09,0,.17,0,.25a5.08,5.08,0,0,1-.37,1.64c.17-.35.32-.69.46-1a7.74,7.74,0,0,0,0-6.29c.28-5.6-1.67-11.71-3.67-18.12.17,1.36.35,2.73.54,4.1-1.77-5.89-3.69-11.7-4-17.73a28.9,28.9,0,0,1,1.4-11C8.68,72.57,8.79,72.29,8.88,72Z"/><path class="cls-4" d="M160.06,70.53a81.74,81.74,0,0,0,3.29,9.27,67.42,67.42,0,0,0,7.74,13.86,48,48,0,0,0,9.3,9.63,42.12,42.12,0,0,0,8.22,5c5.2,1.9,9.77-.09,13.7-3.51C206,100.1,213,96.7,217.81,93.21c.46-.34.91-.68,1.32-1l.18-.15a15.57,15.57,0,0,0,1.49-1.41c-.3-1.63-.65-3.25-1-4.87a110.88,110.88,0,0,0-3.26-11.24l-.31-.3c-2-1.84-4.23-3.59-6.39-5.29-5.5-4.33-10.53-8.38-9.85-13.07a10.21,10.21,0,0,1,1.43-4.12A6,6,0,0,1,204,49.48c-1-1.52-2.08-3-3.18-4.51l-.1-.13c-.69-.16-1.39-.31-2.09-.43a27.88,27.88,0,0,0-11.76.37l-2.29.9c-2.34.91-3.89,1.41-4.86,1.3h-.21a5.54,5.54,0,0,1,0-1.87c.66-3.43,5.22-3.61,7.66-4.83a25.31,25.31,0,0,0-7.94.58C166.47,43.76,155.52,56,160.06,70.53Z"/><path class="cls-4" d="M81,78.82v0a13,13,0,0,0-5.75-7.58c-7-4.73-17.45-5.72-17.45-5.72s-24.05-5.06-5.7,5.7c14.42,8.45,9.32,8.31,12,16.43a38.88,38.88,0,0,0,4.44,8.83,50.92,50.92,0,0,0,4.76,6.3c.92,1,1.83,2,2.73,2.8,9,8.32,17.14,7.93,17.14,7.93s-4-9.84-7.49-19.86C83.75,88.23,82,82.8,81,78.82Z"/><g class="cls-5"><path class="cls-6" d="M38.84,72.61A110.61,110.61,0,0,1,54.51,15.88a111.18,111.18,0,1,0,152.33,152.3,110.49,110.49,0,0,1-56.73,15.68A111.26,111.26,0,0,1,38.84,72.61Z"/></g><path class="cls-7" d="M172.92,54.82A43.69,43.69,0,1,0,216.6,98.51,43.69,43.69,0,0,0,172.92,54.82Z"/><path class="cls-8" d="M144.19,83.92a43.3,43.3,0,0,1,6.13-22.18A43.48,43.48,0,1,0,209.9,121.3a43.46,43.46,0,0,1-65.71-37.38Z"/></g></g></svg>